<!--?xml version="1.0" encoding="UTF-8" standalone="no" ?-->

<svg xmlns="http://www.w3.org/2000/svg" xmlns:xlink="http://www.w3.org/1999/xlink" version="1.1" width="150" height="115" viewBox="366.5 187.95 150 115" xml:space="preserve">
<desc>Created by Logonomy.ir</desc>
<defs>
</defs>


<g transform="matrix(1 0 0 1 441.5 245.45)" id="9bfcb5ec-868f-4175-898b-69117a65c621">
<g style="" vector-effect="non-scaling-stroke">
		<g transform="matrix(1.83 0 0 1.83 -29.13 -9.45)">
<path style="stroke: none; stroke-width: 1; stroke-dasharray: none; stroke-linecap: butt; stroke-dashoffset: 0; stroke-linejoin: miter; stroke-miterlimit: 4; fill: rgb(19,121,170); fill-rule: nonzero; opacity: 1;" transform=" translate(-24.96, -26.33)" d="M 39.006 6.125 H 10.907 v 40.35 c 1.373 0.15 2.998 -0.039 4.78 -0.502 V 10.892 h 23.318 V 6.125 z" stroke-linecap="round"></path>
</g>
		<g transform="matrix(1.83 0 0 1.83 10.73 35.83)">
<path style="stroke: none; stroke-width: 1; stroke-dasharray: none; stroke-linecap: butt; stroke-dashoffset: 0; stroke-linejoin: miter; stroke-miterlimit: 4; fill: rgb(19,121,170); fill-rule: nonzero; opacity: 1;" transform=" translate(-46.79, -51.13)" d="M 75.176 55.494 V 39.889 H 70.41 v 10.833 H 30.237 c -4.007 2.241 -8.038 3.864 -11.834 4.772 H 36.46 v 3.175 h -6.537 v 3.701 h 26.244 v -3.701 H 49.63 v -3.175 H 75.176 z" stroke-linecap="round"></path>
</g>
		<g transform="matrix(1.83 0 0 1.83 -21.72 12.38)">
<path style="stroke: none; stroke-width: 1; stroke-dasharray: none; stroke-linecap: butt; stroke-dashoffset: 0; stroke-linejoin: miter; stroke-miterlimit: 4; fill: rgb(237,137,34); fill-rule: nonzero; opacity: 1;" transform=" translate(-29.01, -38.28)" d="M 58.026 28.998 c -0.054 2.076 -0.99 4.11 -2.746 5.493 c -2.028 1.607 -4.652 1.939 -6.918 1.126 l -3.594 2.821 l -2.262 1.833 l -6.186 4.862 l -0.122 0.096 C 22.656 55.382 7.614 58.067 2.147 51.136 c -4.639 -5.887 -1.607 -16.182 7.589 -25.968 c -5.785 6.958 -7.338 16.541 -4.015 20.753 c 4.272 5.418 16.046 0.719 26.293 -7.148 l 0.658 -0.509 c 0.251 -0.196 0.535 -0.421 0.841 -0.665 l 0.475 -0.373 c 0.495 -0.386 1.018 -0.8 1.533 -1.207 l 2.193 -1.785 l 5.894 -4.645 c -0.217 -2.143 0.502 -4.361 2.103 -5.928 c 1.845 -1.811 4.333 -2.407 6.612 -1.919 c 0.387 0.082 0.495 0.59 0.184 0.834 l -4.979 3.927 c 0 0 0 0 0 0.007 l 0.631 4.395 l 4.13 1.642 l 4.972 -3.914 C 57.572 28.381 58.04 28.605 58.026 28.998 z" stroke-linecap="round"></path>
</g>
		<g transform="matrix(1.83 0 0 1.83 51.77 -35.22)">
<path style="stroke: none; stroke-width: 1; stroke-dasharray: none; stroke-linecap: butt; stroke-dashoffset: 0; stroke-linejoin: miter; stroke-miterlimit: 4; fill: rgb(19,121,170); fill-rule: nonzero; opacity: 1;" transform=" translate(-69.27, -12.21)" d="M 78.245 12.569 l 2.354 -1.118 c -0.046 -0.682 -0.153 -1.357 -0.321 -2.023 l -2.581 -0.336 c -0.24 -0.651 -0.552 -1.282 -0.948 -1.874 l 1.245 -2.285 c -0.218 -0.26 -0.442 -0.516 -0.687 -0.759 c -0.244 -0.244 -0.5 -0.469 -0.76 -0.687 l -2.284 1.245 c -0.593 -0.396 -1.223 -0.708 -1.874 -0.949 l -0.336 -2.581 c -0.666 -0.167 -1.342 -0.275 -2.023 -0.32 l -1.118 2.354 c -0.698 0.028 -1.394 0.132 -2.071 0.322 l -1.795 -1.897 c -0.628 0.251 -1.234 0.567 -1.817 0.935 l 0.479 2.561 c -0.272 0.216 -0.538 0.444 -0.789 0.695 c -0.252 0.251 -0.479 0.517 -0.695 0.79 l -2.561 -0.479 c -0.368 0.583 -0.684 1.189 -0.935 1.817 l 1.897 1.795 c -0.19 0.678 -0.295 1.373 -0.322 2.072 l -2.354 1.119 c 0.045 0.681 0.153 1.357 0.32 2.022 l 2.581 0.336 c 0.241 0.651 0.553 1.282 0.948 1.874 l -1.244 2.285 c 0.217 0.26 0.442 0.516 0.686 0.76 c 0.244 0.244 0.5 0.469 0.76 0.686 l 2.285 -1.245 c 0.592 0.396 1.223 0.708 1.874 0.948 l 0.336 2.581 c 0.665 0.167 1.341 0.275 2.022 0.321 l 1.119 -2.354 c 0.698 -0.028 1.394 -0.132 2.071 -0.322 l 1.795 1.897 c 0.628 -0.251 1.233 -0.567 1.817 -0.935 l -0.479 -2.561 c 0.271 -0.215 0.537 -0.444 0.789 -0.695 s 0.479 -0.517 0.695 -0.789 l 2.561 0.479 c 0.367 -0.583 0.684 -1.189 0.935 -1.817 l -1.897 -1.795 C 78.112 13.963 78.218 13.268 78.245 12.569 z M 73.923 16.704 c -2.567 2.568 -6.73 2.568 -9.299 0 c -2.567 -2.568 -2.567 -6.731 0 -9.299 c 2.568 -2.568 6.731 -2.568 9.299 0 C 76.491 9.973 76.491 14.136 73.923 16.704 z" stroke-linecap="round"></path>
</g>
		<g transform="matrix(1.83 0 0 1.83 14.44 -42.19)">
<path style="stroke: none; stroke-width: 1; stroke-dasharray: none; stroke-linecap: butt; stroke-dashoffset: 0; stroke-linejoin: miter; stroke-miterlimit: 4; fill: rgb(237,137,34); fill-rule: nonzero; opacity: 1;" transform=" translate(-48.82, -8.39)" d="M 55.46 8.608 c 0.016 -0.52 -0.032 -1.038 -0.135 -1.544 l 1.491 -1.219 c -0.152 -0.481 -0.35 -0.947 -0.587 -1.395 l -1.912 0.215 c -0.287 -0.425 -0.623 -0.822 -1.012 -1.178 l 0.49 -1.859 c -0.202 -0.148 -0.408 -0.292 -0.627 -0.424 c -0.219 -0.132 -0.441 -0.249 -0.666 -0.358 l -1.42 1.297 c -0.495 -0.18 -1.003 -0.292 -1.513 -0.35 L 48.873 0 c -0.507 -0.003 -1.011 0.039 -1.508 0.127 l -0.388 1.887 c -0.496 0.144 -0.977 0.341 -1.43 0.597 l -1.623 -1.044 c -0.406 0.291 -0.785 0.625 -1.139 0.992 l 0.795 1.753 c -0.157 0.203 -0.308 0.414 -0.443 0.639 c -0.137 0.225 -0.253 0.456 -0.359 0.689 l -1.923 0.109 c -0.16 0.483 -0.28 0.975 -0.35 1.469 l 1.679 0.953 c -0.017 0.52 0.031 1.038 0.135 1.544 l -1.492 1.218 c 0.152 0.481 0.35 0.947 0.588 1.395 l 1.911 -0.214 c 0.288 0.425 0.623 0.822 1.012 1.177 l -0.489 1.86 c 0.201 0.148 0.408 0.292 0.626 0.424 c 0.219 0.132 0.442 0.249 0.667 0.358 l 1.42 -1.297 c 0.494 0.18 1.002 0.292 1.512 0.35 l 0.697 1.793 c 0.508 0.002 1.012 -0.039 1.509 -0.127 l 0.387 -1.887 c 0.496 -0.144 0.978 -0.341 1.431 -0.597 l 1.623 1.044 c 0.405 -0.291 0.785 -0.625 1.139 -0.992 l -0.796 -1.753 c 0.158 -0.203 0.308 -0.414 0.444 -0.639 c 0.136 -0.225 0.253 -0.456 0.359 -0.689 l 1.922 -0.108 c 0.161 -0.484 0.28 -0.975 0.35 -1.469 L 55.46 8.608 z M 52.953 10.795 c -1.39 2.296 -4.378 3.032 -6.674 1.642 c -2.297 -1.389 -3.032 -4.377 -1.643 -6.674 s 4.378 -3.032 6.674 -1.643 C 53.607 5.51 54.343 8.498 52.953 10.795 z" stroke-linecap="round"></path>
</g>
		<g transform="matrix(1.83 0 0 1.83 56.58 -0.3)">
<path style="stroke: none; stroke-width: 1; stroke-dasharray: none; stroke-linecap: butt; stroke-dashoffset: 0; stroke-linejoin: miter; stroke-miterlimit: 4; fill: rgb(237,137,34); fill-rule: nonzero; opacity: 1;" transform=" translate(-71.91, -31.33)" d="M 77.541 31.036 c -0.022 -0.447 -0.103 -0.881 -0.227 -1.299 l 1.173 -1.138 c -0.166 -0.398 -0.365 -0.778 -0.598 -1.138 l -1.605 0.321 c -0.276 -0.341 -0.59 -0.651 -0.939 -0.921 l 0.28 -1.615 c -0.362 -0.222 -0.749 -0.408 -1.152 -0.563 l -1.108 1.202 c -0.211 -0.056 -0.426 -0.104 -0.646 -0.136 c -0.221 -0.032 -0.44 -0.047 -0.658 -0.053 l -0.721 -1.468 c -0.432 0.034 -0.855 0.103 -1.266 0.212 l -0.19 1.628 c -0.412 0.159 -0.802 0.368 -1.163 0.616 l -1.447 -0.765 c -0.326 0.279 -0.625 0.587 -0.897 0.921 l 0.801 1.425 c -0.237 0.366 -0.438 0.759 -0.587 1.181 l -1.617 0.231 c -0.049 0.207 -0.094 0.416 -0.125 0.63 s -0.048 0.428 -0.06 0.64 l 1.484 0.682 c 0.022 0.447 0.103 0.881 0.226 1.299 l -1.172 1.138 c 0.166 0.398 0.365 0.779 0.598 1.139 l 1.605 -0.321 c 0.276 0.341 0.59 0.651 0.939 0.922 l -0.28 1.615 c 0.362 0.222 0.748 0.407 1.152 0.563 l 1.108 -1.202 c 0.211 0.056 0.426 0.104 0.646 0.136 s 0.44 0.047 0.658 0.054 l 0.721 1.468 c 0.432 -0.033 0.855 -0.103 1.265 -0.212 l 0.19 -1.628 c 0.413 -0.16 0.802 -0.368 1.164 -0.616 l 1.447 0.765 c 0.325 -0.279 0.625 -0.587 0.896 -0.921 l -0.8 -1.425 c 0.237 -0.365 0.438 -0.76 0.587 -1.182 l 1.617 -0.23 c 0.049 -0.207 0.094 -0.416 0.125 -0.631 c 0.03 -0.215 0.048 -0.428 0.06 -0.64 L 77.541 31.036 z M 76.068 31.927 c -0.327 2.256 -2.423 3.818 -4.679 3.491 c -2.256 -0.328 -3.819 -2.423 -3.492 -4.679 c 0.328 -2.256 2.423 -3.82 4.68 -3.492 C 74.833 27.575 76.396 29.67 76.068 31.927 z" stroke-linecap="round"></path>
</g>
</g>
</g>
</svg>