<?xml version="1.0" encoding="UTF-8"?>
<!DOCTYPE svg PUBLIC "-//W3C//DTD SVG 1.1//EN" "http://www.w3.org/Graphics/SVG/1.1/DTD/svg11.dtd">
<svg xmlns="http://www.w3.org/2000/svg" version="1.1" width="1548px" height="678px" style="shape-rendering:geometricPrecision; text-rendering:geometricPrecision; image-rendering:optimizeQuality; fill-rule:evenodd; clip-rule:evenodd" xmlns:xlink="http://www.w3.org/1999/xlink">
<g><path style="opacity:0.942" fill="#ec8921" d="M 822.5,-0.5 C 826.833,-0.5 831.167,-0.5 835.5,-0.5C 836.201,4.56159 838.201,8.89492 841.5,12.5C 844.785,13.6594 848.118,14.1594 851.5,14C 855.011,11.153 858.511,8.31962 862,5.5C 866.02,6.85861 869.52,9.02527 872.5,12C 871.172,16.3048 869.839,20.6381 868.5,25C 870.65,27.9837 872.984,30.817 875.5,33.5C 880.661,33.4643 885.828,33.4643 891,33.5C 892.699,36.935 894.199,40.435 895.5,44C 891.5,47.3333 887.5,50.6667 883.5,54C 884.293,57.4106 884.793,60.9106 885,64.5C 889.164,66.581 893.164,68.9143 897,71.5C 896.965,75.5214 896.465,79.5214 895.5,83.5C 890.28,84.0306 885.113,84.6973 880,85.5C 878.365,88.6319 876.532,91.6319 874.5,94.5C 876.226,98.9531 878.226,103.286 880.5,107.5C 878.079,111.09 874.912,113.757 871,115.5C 866.731,113.284 862.565,110.951 858.5,108.5C 855.505,109.664 852.505,110.83 849.5,112C 847.547,116.057 846.214,120.391 845.5,125C 845.095,125.945 844.428,126.612 843.5,127C 839.789,127.825 836.122,127.659 832.5,126.5C 830.833,122.5 829.167,118.5 827.5,114.5C 823.928,113.658 820.428,112.658 817,111.5C 813.019,114.647 809.186,117.98 805.5,121.5C 801.199,119.848 797.866,117.182 795.5,113.5C 796.422,109.645 797.422,105.812 798.5,102C 796.655,98.6559 794.322,95.6559 791.5,93C 786.505,93.082 781.505,93.082 776.5,93C 773.903,89.5477 772.737,85.7144 773,81.5C 776.862,78.6331 780.362,75.4664 783.5,72C 782.942,68.4864 782.276,64.9864 781.5,61.5C 777.119,59.3163 773.119,56.6496 769.5,53.5C 770.313,49.9258 771.313,46.4258 772.5,43C 776.863,42.7095 781.196,42.2095 785.5,41.5C 787.885,39.0957 790.051,36.4291 792,33.5C 791.412,28.6293 789.912,23.9626 787.5,19.5C 789.471,15.5294 792.471,12.5294 796.5,10.5C 800.582,13.2914 804.749,15.9581 809,18.5C 812.168,16.2777 815.668,14.9444 819.5,14.5C 819.865,9.34403 820.865,4.34403 822.5,-0.5 Z M 830.5,25.5 C 858.276,27.7727 871.109,42.7727 869,70.5C 862.201,91.6579 847.701,100.825 825.5,98C 807.686,92.8934 798.019,81.06 796.5,62.5C 798.895,41.7773 810.229,29.4439 830.5,25.5 Z"/></g>
<g><path style="opacity:0.957" fill="#1379aa" d="M 994.5,5.5 C 999.912,5.79075 1005.24,6.62408 1010.5,8C 1011.54,14.4894 1012.71,20.9894 1014,27.5C 1018.7,29.4355 1023.2,31.7688 1027.5,34.5C 1032.94,31.3657 1038.44,28.3657 1044,25.5C 1049.11,28.2721 1053.27,32.1054 1056.5,37C 1052.98,42.3658 1049.98,48.0324 1047.5,54C 1049.93,58.6939 1051.93,63.5272 1053.5,68.5C 1058.86,68.6697 1064.19,69.1697 1069.5,70C 1071.4,70.1992 1072.9,71.0325 1074,72.5C 1074.8,77.0516 1075.63,81.5516 1076.5,86C 1070.25,89.3735 1064.09,92.8735 1058,96.5C 1057.82,101.161 1056.98,105.661 1055.5,110C 1060.37,115.043 1065.37,119.876 1070.5,124.5C 1068.29,129.079 1065.96,133.579 1063.5,138C 1057.11,137.892 1050.78,137.059 1044.5,135.5C 1040.89,138.931 1037.06,142.264 1033,145.5C 1033.24,151.535 1034.07,157.535 1035.5,163.5C 1035.43,164.772 1035.1,165.938 1034.5,167C 1030.17,169.167 1025.83,171.333 1021.5,173.5C 1016.88,168.375 1012.04,163.375 1007,158.5C 1002.99,159.941 998.826,160.774 994.5,161C 993.584,161.374 992.75,161.874 992,162.5C 989.255,168.325 986.255,173.992 983,179.5C 978.157,178.705 973.324,177.705 968.5,176.5C 966.749,170.067 965.415,163.567 964.5,157C 960.061,154.697 955.561,152.53 951,150.5C 944.947,153.109 939.114,156.109 933.5,159.5C 929.849,156.349 926.349,153.016 923,149.5C 924.667,142.817 927.5,136.484 931.5,130.5C 928.769,126.204 926.435,121.704 924.5,117C 918.211,115.755 911.878,114.755 905.5,114C 903.078,108.483 902.411,102.816 903.5,97C 908.713,94.2267 914.046,91.7267 919.5,89.5C 920.378,84.6416 921.378,79.8083 922.5,75C 918.679,69.8457 914.179,65.3457 909,61.5C 909.604,55.7784 911.771,50.6118 915.5,46C 922.065,46.6458 928.565,47.8125 935,49.5C 938.167,45 942,41.1667 946.5,38C 944.917,32.088 943.584,26.088 942.5,20C 946.283,15.9317 950.949,13.0984 956.5,11.5C 961.292,15.7905 965.959,20.2905 970.5,25C 975.862,24.7181 981.195,23.8847 986.5,22.5C 988.907,16.6863 991.574,11.0196 994.5,5.5 Z M 982.5,41.5 C 1011.91,40.4521 1030.41,54.1188 1038,82.5C 1040.19,113.302 1026.36,132.468 996.5,140C 965.899,141.452 947.066,127.285 940,97.5C 938.977,67.1808 953.144,48.5141 982.5,41.5 Z"/></g>
<g><path style="opacity:0.985" fill="#1379aa" d="M 544.5,45.5 C 616.167,45.5 687.833,45.5 759.5,45.5C 759.5,57.8333 759.5,70.1667 759.5,82.5C 700.167,82.5 640.833,82.5 581.5,82.5C 581.667,171.501 581.5,260.501 581,349.5C 569.121,352.997 556.955,354.331 544.5,353.5C 544.5,250.833 544.5,148.167 544.5,45.5 Z"/></g>
<g><path style="opacity:0.975" fill="#ec8921" d="M 842.5,162.5 C 848.888,162.312 855.222,162.812 861.5,164C 862.939,164.991 863.939,166.324 864.5,168C 863.21,170.292 861.543,172.292 859.5,174C 847.69,182.976 836.023,192.143 824.5,201.5C 826.086,212.447 828.086,223.28 830.5,234C 840.133,237.933 849.799,241.766 859.5,245.5C 872.9,236.276 885.9,226.443 898.5,216C 900.701,215.175 902.534,215.675 904,217.5C 903.341,247.3 888.507,265.8 859.5,273C 852.5,273.667 845.5,273.667 838.5,273C 835.851,272.548 833.351,271.714 831,270.5C 801.5,294 772,317.5 742.5,341C 703.509,371.5 660.175,394.167 612.5,409C 583.985,417.793 554.985,420.126 525.5,416C 488.963,408.464 467.796,386.297 462,349.5C 460.323,322.869 465.323,297.536 477,273.5C 492.101,243.118 511.268,215.618 534.5,191C 535.167,190.333 535.833,190.333 536.5,191C 509.689,223.412 495.022,260.745 492.5,303C 493.221,348.73 516.221,369.397 561.5,365C 582.33,361.279 602.33,354.945 621.5,346C 648.163,332.677 673.497,317.344 697.5,300C 729.167,275 760.833,250 792.5,225C 792.482,190.543 809.148,169.71 842.5,162.5 Z"/></g>
<g><path style="opacity:0.933" fill="#ec8921" d="M 997.5,183.5 C 1000.19,183.336 1002.85,183.503 1005.5,184C 1007.29,187.088 1008.96,190.254 1010.5,193.5C 1013.3,194.305 1016.14,194.972 1019,195.5C 1022.49,193.346 1025.32,190.512 1027.5,187C 1031.38,187.427 1035.05,188.76 1038.5,191C 1034.5,198.308 1035.83,204.308 1042.5,209C 1046.4,209.289 1050.23,208.789 1054,207.5C 1057.56,210.281 1059.22,213.947 1059,218.5C 1056.96,220.874 1054.63,222.874 1052,224.5C 1051.63,228.256 1052.13,231.922 1053.5,235.5C 1056.62,236.559 1059.62,237.892 1062.5,239.5C 1063.96,243.528 1063.63,247.361 1061.5,251C 1057.51,251.282 1053.68,252.115 1050,253.5C 1048.7,255.94 1047.53,258.44 1046.5,261C 1048.05,264.597 1049.72,268.097 1051.5,271.5C 1050.1,274.406 1048.1,276.906 1045.5,279C 1042.05,278.288 1038.72,276.955 1035.5,275C 1034.17,274.333 1032.83,274.333 1031.5,275C 1029.53,276.544 1027.37,277.711 1025,278.5C 1024.77,282.584 1024.1,286.584 1023,290.5C 1019.58,292.089 1016.08,292.422 1012.5,291.5C 1011,288.5 1009.5,285.5 1008,282.5C 1004.7,280.696 1001.2,280.196 997.5,281C 994.911,284.097 991.911,286.597 988.5,288.5C 984.357,287.954 981.69,285.787 980.5,282C 981.007,278.787 981.674,275.62 982.5,272.5C 979.801,269.964 976.968,267.631 974,265.5C 964.869,269.998 959.869,267.331 959,257.5C 961.833,254.667 964.667,251.833 967.5,249C 966.67,246.198 965.837,243.365 965,240.5C 961.912,238.706 958.746,237.039 955.5,235.5C 954.54,231.861 954.54,228.195 955.5,224.5C 960.093,224.326 964.426,223.326 968.5,221.5C 969.706,218.921 971.039,216.421 972.5,214C 970.121,210.744 968.121,207.244 966.5,203.5C 968.817,200.683 971.317,198.016 974,195.5C 977.581,197.374 981.081,199.374 984.5,201.5C 986.941,199.728 989.608,198.394 992.5,197.5C 993.726,193.251 994.393,188.917 994.5,184.5C 995.791,184.737 996.791,184.404 997.5,183.5 Z M 1006.5,206.5 C 1029.77,207.938 1040.94,220.272 1040,243.5C 1034.67,261.753 1022.51,269.92 1003.5,268C 984.803,261.77 976.97,248.937 980,229.5C 984.544,216.822 993.377,209.155 1006.5,206.5 Z"/></g>
<g><path style="opacity:0.981" fill="#1379aa" d="M 997.5,301.5 C 1010.17,301.5 1022.83,301.5 1035.5,301.5C 1035.5,341.5 1035.5,381.5 1035.5,421.5C 970.5,421.5 905.5,421.5 840.5,421.5C 840.5,429.5 840.5,437.5 840.5,445.5C 857.167,445.5 873.833,445.5 890.5,445.5C 890.5,455.167 890.5,464.833 890.5,474.5C 823.5,474.5 756.5,474.5 689.5,474.5C 689.5,464.833 689.5,455.167 689.5,445.5C 705.833,445.5 722.167,445.5 738.5,445.5C 738.5,437.5 738.5,429.5 738.5,421.5C 692.832,421.667 647.165,421.5 601.5,421C 632.688,412.716 662.355,400.716 690.5,385C 792.833,384.5 895.166,384.333 997.5,384.5C 997.5,356.833 997.5,329.167 997.5,301.5 Z"/></g>
</svg>
